<svg xmlns="http://www.w3.org/2000/svg" width="200.5mm" height="133.825mm" viewBox="90.25 -5.0 200.5 133.825">
  <!-- Generated from c:\work\keyboard\ega-right-kb\HW\keyboard-layout-editor\ega-right-kb-layout.json -->
  <g id="plate_outline" style="stroke:black; fill:none; stroke-width:0.5">
    <rect x="90.25" y="-5.0" width="200.5" height="133.825" rx="3" ry="3" />
  </g>
  <g id="switches" style="stroke:red; fill:none; stroke-width:0.1">
    <rect x="97.775" y="2.5250000000000004" width="14.0" height="14.0" />
    <rect x="126.35" y="2.5250000000000004" width="14.0" height="14.0" />
    <rect x="145.4" y="2.5250000000000004" width="14.0" height="14.0" />
    <rect x="164.45000000000002" y="2.5250000000000004" width="14.0" height="14.0" />
    <rect x="183.5" y="2.5250000000000004" width="14.0" height="14.0" />
    <rect x="212.07500000000002" y="2.5250000000000004" width="14.0" height="14.0" />
    <rect x="231.125" y="2.5250000000000004" width="14.0" height="14.0" />
    <rect x="250.175" y="2.5250000000000004" width="14.0" height="14.0" />
    <rect x="269.225" y="2.5250000000000004" width="14.0" height="14.0" />
    <rect x="97.775" y="31.1" width="14.0" height="14.0" />
    <rect x="116.825" y="31.1" width="14.0" height="14.0" />
    <rect x="135.875" y="31.1" width="14.0" height="14.0" />
    <rect x="154.925" y="31.1" width="14.0" height="14.0" />
    <rect x="173.975" y="31.1" width="14.0" height="14.0" />
    <rect x="193.025" y="31.1" width="14.0" height="14.0" />
    <rect x="212.07500000000002" y="31.1" width="14.0" height="14.0" />
    <rect x="231.125" y="31.1" width="14.0" height="14.0" />
    <rect x="250.175" y="31.1" width="14.0" height="14.0" />
    <rect x="269.225" y="31.1" width="14.0" height="14.0" />
    <rect x="107.30000000000001" y="50.150000000000006" width="14.0" height="14.0" />
    <rect x="126.35" y="50.150000000000006" width="14.0" height="14.0" />
    <rect x="145.4" y="50.150000000000006" width="14.0" height="14.0" />
    <rect x="164.45000000000002" y="50.150000000000006" width="14.0" height="14.0" />
    <rect x="183.5" y="50.150000000000006" width="14.0" height="14.0" />
    <rect x="202.55" y="50.150000000000006" width="14.0" height="14.0" />
    <rect x="221.60000000000002" y="50.150000000000006" width="14.0" height="14.0" />
    <rect x="240.65" y="50.150000000000006" width="14.0" height="14.0" />
    <rect x="266.84375" y="59.675" width="14.0" height="14.0" />
    <rect x="112.0625" y="69.2" width="14.0" height="14.0" />
    <rect x="131.1125" y="69.2" width="14.0" height="14.0" />
    <rect x="150.1625" y="69.2" width="14.0" height="14.0" />
    <rect x="169.2125" y="69.2" width="14.0" height="14.0" />
    <rect x="188.26250000000002" y="69.2" width="14.0" height="14.0" />
    <rect x="207.3125" y="69.2" width="14.0" height="14.0" />
    <rect x="226.3625" y="69.2" width="14.0" height="14.0" />
    <rect x="245.41250000000002" y="69.2" width="14.0" height="14.0" />
    <rect x="121.5875" y="88.25" width="14.0" height="14.0" />
    <rect x="140.63750000000002" y="88.25" width="14.0" height="14.0" />
    <rect x="159.6875" y="88.25" width="14.0" height="14.0" />
    <rect x="178.7375" y="88.25" width="14.0" height="14.0" />
    <rect x="197.7875" y="88.25" width="14.0" height="14.0" />
    <rect x="216.8375" y="88.25" width="14.0" height="14.0" />
    <rect x="235.88750000000002" y="88.25" width="14.0" height="14.0" />
    <rect x="262.08125" y="88.25" width="14.0" height="14.0" />
    <rect x="126.35" y="107.30000000000001" width="14.0" height="14.0" />
    <rect x="162.06875" y="107.30000000000001" width="14.0" height="14.0" />
    <rect x="193.025" y="107.30000000000001" width="14.0" height="14.0" />
    <rect x="219.21875" y="107.30000000000001" width="14.0" height="14.0" />
    <rect x="243.03125" y="107.30000000000001" width="14.0" height="14.0" />
    <rect x="266.84375" y="107.30000000000001" width="14.0" height="14.0" />
  </g>
  <g id="keycaps" style="stroke:blue; fill:none; stroke-width:0.1; opacity:0.5">
    <rect x="95.25" y="0.0" width="19.05" height="19.05" />
    <rect x="123.825" y="0.0" width="19.05" height="19.05" />
    <rect x="142.875" y="0.0" width="19.05" height="19.05" />
    <rect x="161.925" y="0.0" width="19.05" height="19.05" />
    <rect x="180.975" y="0.0" width="19.05" height="19.05" />
    <rect x="209.55" y="0.0" width="19.05" height="19.05" />
    <rect x="228.60000000000002" y="0.0" width="19.05" height="19.05" />
    <rect x="247.65" y="0.0" width="19.05" height="19.05" />
    <rect x="266.7" y="0.0" width="19.05" height="19.05" />
    <rect x="95.25" y="28.575000000000003" width="19.05" height="19.05" />
    <rect x="114.30000000000001" y="28.575000000000003" width="19.05" height="19.05" />
    <rect x="133.35" y="28.575000000000003" width="19.05" height="19.05" />
    <rect x="152.4" y="28.575000000000003" width="19.05" height="19.05" />
    <rect x="171.45000000000002" y="28.575000000000003" width="19.05" height="19.05" />
    <rect x="190.5" y="28.575000000000003" width="19.05" height="19.05" />
    <rect x="209.55" y="28.575000000000003" width="19.05" height="19.05" />
    <rect x="228.60000000000002" y="28.575000000000003" width="19.05" height="19.05" />
    <rect x="247.65" y="28.575000000000003" width="19.05" height="19.05" />
    <rect x="266.7" y="28.575000000000003" width="19.05" height="19.05" />
    <rect x="104.775" y="47.625" width="19.05" height="19.05" />
    <rect x="123.825" y="47.625" width="19.05" height="19.05" />
    <rect x="142.875" y="47.625" width="19.05" height="19.05" />
    <rect x="161.925" y="47.625" width="19.05" height="19.05" />
    <rect x="180.975" y="47.625" width="19.05" height="19.05" />
    <rect x="200.025" y="47.625" width="19.05" height="19.05" />
    <rect x="219.07500000000002" y="47.625" width="19.05" height="19.05" />
    <rect x="238.125" y="47.625" width="19.05" height="19.05" />
    <rect x="261.9375" y="47.625" width="23.8125" height="38.1" />
    <rect x="109.53750000000001" y="66.675" width="19.05" height="19.05" />
    <rect x="128.5875" y="66.675" width="19.05" height="19.05" />
    <rect x="147.63750000000002" y="66.675" width="19.05" height="19.05" />
    <rect x="166.6875" y="66.675" width="19.05" height="19.05" />
    <rect x="185.7375" y="66.675" width="19.05" height="19.05" />
    <rect x="204.7875" y="66.675" width="19.05" height="19.05" />
    <rect x="223.8375" y="66.675" width="19.05" height="19.05" />
    <rect x="242.88750000000002" y="66.675" width="19.05" height="19.05" />
    <rect x="119.0625" y="85.72500000000001" width="19.05" height="19.05" />
    <rect x="138.1125" y="85.72500000000001" width="19.05" height="19.05" />
    <rect x="157.1625" y="85.72500000000001" width="19.05" height="19.05" />
    <rect x="176.2125" y="85.72500000000001" width="19.05" height="19.05" />
    <rect x="195.26250000000002" y="85.72500000000001" width="19.05" height="19.05" />
    <rect x="214.3125" y="85.72500000000001" width="19.05" height="19.05" />
    <rect x="233.3625" y="85.72500000000001" width="19.05" height="19.05" />
    <rect x="252.41250000000002" y="85.72500000000001" width="33.3375" height="19.05" />
    <rect x="114.30000000000001" y="104.775" width="38.1" height="19.05" />
    <rect x="152.4" y="104.775" width="33.3375" height="19.05" />
    <rect x="185.7375" y="104.775" width="28.575000000000003" height="19.05" />
    <rect x="214.3125" y="104.775" width="23.8125" height="19.05" />
    <rect x="238.125" y="104.775" width="23.8125" height="19.05" />
    <rect x="261.9375" y="104.775" width="23.8125" height="19.05" />
  </g>
</svg>